<?xml version="1.0" standalone="no"?>
<!DOCTYPE svg PUBLIC "-//W3C//DTD SVG 20010904//EN"
 "http://www.w3.org/TR/2001/REC-SVG-20010904/DTD/svg10.dtd">
<svg version="1.0" xmlns="http://www.w3.org/2000/svg"
 width="311.000000pt" height="311.000000pt" viewBox="0 0 311.000000 311.000000"
 preserveAspectRatio="xMidYMid meet">
<metadata>
Created by potrace 1.14, written by Peter Selinger 2001-2017
</metadata>
<g transform="translate(0.000000,311.000000) scale(0.100000,-0.100000)"
fill="#000000" stroke="none">
<path d="M1330 3085 c-320 -52 -583 -175 -803 -374 -259 -234 -418 -512 -493
-861 -15 -67 -19 -128 -19 -295 0 -226 12 -312 71 -493 169 -517 627 -917
1181 -1029 137 -28 452 -25 593 6 624 134 1087 602 1212 1224 32 160 32 424 0
584 -96 478 -398 876 -827 1088 -142 71 -238 104 -384 136 -126 27 -408 35
-531 14z m-57 -511 c4 -8 15 -14 24 -14 9 0 13 -3 10 -7 -4 -3 1 -11 10 -18 8
-6 16 -26 17 -43 1 -19 5 -27 11 -21 10 10 48 12 58 2 4 -4 -5 -19 -19 -34
l-26 -27 31 -16 c17 -9 31 -21 31 -26 0 -6 9 -10 20 -10 10 0 23 -6 27 -14 7
-12 17 -13 57 -4 28 6 44 13 37 17 -9 6 -8 11 4 21 23 19 18 36 -15 50 -32 13
-105 7 -126 -11 -6 -5 -19 -6 -28 -3 -16 6 -16 8 0 25 9 11 25 19 34 19 9 0
20 3 24 7 8 8 60 15 123 17 22 1 39 4 36 9 -2 4 13 7 33 7 39 0 74 -23 74 -48
0 -9 8 -24 17 -34 16 -18 16 -21 -5 -61 -14 -26 -22 -60 -22 -89 0 -25 -9 -75
-20 -110 -11 -34 -20 -71 -20 -80 0 -24 -4 -23 -34 7 -27 27 -50 31 -90 15
-18 -7 -26 -17 -26 -34 0 -23 4 -25 53 -28 l52 -3 1 -35 c0 -20 -11 -58 -27
-90 -15 -30 -31 -73 -35 -95 -9 -56 -34 -115 -48 -115 -12 0 -33 -25 -133
-154 l-62 -81 -78 2 -78 2 65 -13 c80 -15 92 -21 85 -49 -5 -18 9 -35 70 -90
41 -38 82 -81 90 -97 10 -19 29 -33 57 -42 52 -18 57 -37 33 -143 -19 -89 -50
-139 -87 -143 l-27 -3 29 58 c16 32 32 72 35 88 4 24 2 21 -10 -10 -34 -90
-64 -107 -185 -108 -71 -1 -190 38 -190 60 0 7 -5 13 -10 13 -6 0 -22 12 -35
26 -21 23 -26 24 -31 10 -13 -34 -54 -5 -54 40 0 12 6 15 23 10 18 -4 16 -1
-10 20 -39 30 -42 60 -10 75 l24 11 -29 29 c-24 24 -27 32 -18 49 11 21 21 23
78 20 43 -2 40 7 -7 20 -87 23 -45 90 57 90 67 0 125 14 142 35 9 11 1 10 -31
-5 -58 -26 -61 -25 -88 10 l-22 30 23 10 c16 6 18 9 6 9 -9 1 -20 -3 -23 -9
-3 -5 -18 -10 -33 -11 -25 -1 -25 -1 -5 -7 28 -9 67 -41 59 -49 -3 -4 -16 3
-29 15 -27 25 -47 30 -22 6 25 -25 11 -27 -26 -5 -19 12 -46 21 -60 21 -22 0
-28 -6 -33 -31 -8 -41 -8 -267 1 -391 l6 -98 26 7 c14 3 38 12 53 19 15 8 29
10 32 5 9 -14 -15 -28 -64 -38 -41 -8 -45 -11 -50 -43 -8 -55 -30 -60 -259
-63 -180 -1 -202 0 -218 16 -16 15 -18 36 -17 154 1 86 6 144 14 159 11 19 10
25 -4 39 -20 20 -20 42 -1 79 8 15 15 34 15 41 0 7 5 15 10 17 6 2 12 25 14
53 1 27 8 51 14 53 7 2 12 8 12 14 0 6 10 21 22 33 21 21 25 22 53 10 38 -15
85 -17 103 -3 9 8 18 6 31 -6 17 -16 19 -16 24 3 3 12 17 23 33 27 16 4 35 11
42 17 7 5 26 11 42 12 22 2 30 -2 32 -18 4 -28 34 -45 50 -29 18 18 10 80 -12
105 -24 25 -25 31 -5 47 33 28 4 60 -54 60 -16 0 -33 5 -36 11 -4 5 -18 14
-31 19 -22 9 -24 14 -24 85 0 42 5 85 10 95 9 17 5 22 -24 34 -34 14 -34 15
-41 91 -11 118 -3 174 30 202 45 39 67 28 92 -47 22 -66 46 -88 56 -51 2 11
22 27 43 37 l39 16 -30 13 -30 14 43 7 c23 3 42 9 42 13 0 3 -19 23 -42 44
l-43 37 48 -20 c58 -24 64 -24 64 -5 0 8 -4 15 -9 15 -4 0 -8 5 -8 10 0 6 7
10 15 10 19 0 9 26 -25 66 -25 29 -28 30 -54 17 -15 -8 -24 -18 -21 -23 4 -6
2 -10 -3 -10 -5 0 -7 -11 -4 -25 l4 -26 -36 18 c-34 16 -36 18 -20 30 12 9 13
13 5 13 -8 0 12 29 43 64 54 61 56 65 36 76 -17 9 -18 14 -7 30 19 32 43 23
71 -24 26 -45 56 -67 56 -41 0 8 -9 29 -20 48 -16 27 -18 36 -7 40 18 7 63
-34 71 -66 8 -35 39 -35 89 -2 20 14 37 28 37 31 0 3 -5 2 -10 -1 -6 -3 -17 0
-25 7 -8 7 -21 19 -30 26 -8 7 -15 18 -15 23 0 16 53 1 63 -17z m857 -213 c17
-12 27 -31 30 -57 4 -31 10 -40 28 -42 19 -3 22 1 22 32 0 40 10 44 54 21 15
-8 37 -15 47 -15 25 0 87 -32 94 -49 3 -9 0 -11 -11 -7 -8 3 -14 2 -12 -2 1
-5 21 -48 42 -96 30 -65 42 -83 48 -72 5 9 5 24 -2 35 -14 26 9 42 24 17 25
-41 50 -68 72 -76 l23 -9 -21 -51 c-21 -51 -37 -65 -90 -81 -24 -7 -28 -6 -18
5 9 12 1 15 -40 18 -60 4 -60 -8 1 -39 l44 -23 -40 6 -40 6 33 -21 c17 -11 32
-28 32 -36 0 -8 5 -15 10 -15 6 0 10 9 10 21 0 11 5 17 10 14 6 -3 10 0 10 7
0 8 5 6 11 -5 6 -10 8 -30 4 -45 l-6 -26 26 27 c30 29 51 27 35 -3 -5 -10 -15
-31 -20 -45 -9 -23 -13 -25 -25 -15 -12 10 -15 9 -15 -3 0 -9 -9 -22 -21 -31
-20 -14 -20 -15 -2 -24 22 -12 27 -9 71 41 17 21 32 32 32 25 0 -26 -40 -78
-79 -104 -26 -17 -42 -36 -46 -55 -10 -43 -99 -174 -160 -235 -44 -44 -60 -54
-88 -54 -40 0 -130 57 -212 134 -30 28 -72 66 -93 84 -37 30 -68 81 -87 141
-7 23 -6 24 28 18 39 -6 74 12 86 46 8 20 8 20 31 -3 l23 -23 -7 29 c-4 16
-15 37 -25 47 -16 17 -20 16 -89 -6 -78 -25 -88 -23 -106 27 -9 26 9 35 50 26
38 -9 53 3 34 25 -14 17 -67 20 -90 5 -16 -10 -30 4 -30 32 0 12 11 19 38 23
92 16 122 43 122 115 1 42 4 48 56 92 30 26 73 52 94 58 22 6 40 13 40 16 0
13 -97 44 -136 44 -50 0 -76 -11 -116 -47 -14 -14 -31 -22 -36 -19 -13 8 -7
-58 9 -97 11 -27 10 -32 -11 -49 -17 -14 -31 -17 -59 -12 l-35 7 15 -24 c9
-13 30 -28 47 -34 18 -5 32 -13 32 -17 0 -12 -16 -10 -56 7 -33 14 -36 13 -30
-1 5 -14 4 -15 -9 -4 -12 10 -15 9 -15 -5 0 -14 -3 -15 -15 -5 -23 19 -18 38
30 127 24 46 51 111 60 145 9 35 19 66 23 69 16 14 151 58 196 64 32 5 55 14
70 30 24 27 55 25 96 -4z m-292 -293 c7 -7 11 -23 11 -37 -1 -21 -2 -22 -6 -6
-3 11 -12 28 -21 38 -17 19 -3 24 16 5z m782 -242 c-18 -23 -30 -20 -30 7 0
32 11 40 29 23 12 -12 12 -18 1 -30z m-1753 -133 c3 -7 21 -13 43 -13 52 0 70
-23 41 -53 -24 -27 -27 -37 -8 -37 25 0 50 -72 33 -98 -11 -18 -36 3 -36 30 0
14 -6 19 -22 17 -13 -2 -28 0 -35 4 -8 5 -17 0 -25 -13 -7 -11 -18 -20 -25
-20 -6 0 -24 -5 -40 -12 -15 -6 -38 -10 -50 -9 -13 1 -23 -2 -23 -7 0 -11 -60
-9 -80 3 -28 17 -49 15 -75 -9 -14 -13 -25 -26 -25 -30 0 -4 -7 -15 -16 -23
-8 -9 -13 -24 -11 -34 3 -11 1 -22 -4 -25 -6 -3 -7 -14 -4 -25 4 -11 2 -19 -4
-19 -6 0 -11 -11 -11 -25 0 -14 -4 -25 -10 -25 -5 0 -10 -7 -10 -17 0 -15 -1
-15 -18 0 -11 10 -18 32 -19 56 -1 22 -7 49 -12 60 -6 11 -11 31 -11 45 0 14
-5 36 -11 48 -12 28 2 75 27 85 9 3 33 21 53 41 43 40 189 112 230 112 16 0
41 6 55 14 21 11 35 11 63 3 19 -6 37 -17 40 -24z m1376 -405 c69 -2 68 12 9
-157 -32 -90 -46 -119 -71 -138 -19 -15 -31 -33 -30 -46 1 -20 2 -19 12 5 6
16 19 31 30 34 10 3 25 21 33 40 16 38 25 42 45 18 11 -14 9 -24 -13 -67 -14
-29 -29 -68 -32 -88 -4 -21 -13 -42 -21 -49 -12 -10 -13 -7 -9 15 3 18 -2 35
-13 49 -16 19 -16 19 0 7 10 -8 17 -9 17 -3 0 13 -20 20 -42 14 -11 -3 -18
-14 -18 -29 0 -22 4 -25 25 -21 14 3 25 1 25 -4 0 -6 -36 -7 -93 -3 l-93 7 4
-36 c2 -20 9 -36 14 -36 6 0 7 13 3 31 l-7 32 38 -6 c22 -4 48 -7 60 -7 15 0
24 -10 32 -32 l11 -33 -5 33 c-5 27 -2 32 13 32 16 0 19 -6 15 -30 -3 -22 0
-30 11 -30 8 0 18 5 20 10 3 6 4 5 3 -2 -1 -7 -13 -15 -27 -18 -19 -5 -15 -8
24 -14 26 -4 45 -11 42 -17 -9 -14 -59 -11 -91 6 -31 16 -39 13 -30 -10 3 -10
11 -13 18 -9 8 5 8 1 -1 -10 -8 -9 -23 -15 -32 -13 -10 3 -19 1 -21 -3 -2 -5
-15 -12 -30 -15 -25 -6 -28 -4 -28 16 l0 24 -13 -25 c-8 -17 -22 -26 -42 -28
-17 -2 -49 -10 -72 -19 -35 -13 -45 -13 -70 -1 -25 12 -28 18 -27 57 1 34 6
47 20 52 16 6 15 8 -7 8 -14 1 -34 7 -45 15 -18 14 -18 16 -2 43 13 22 26 29
60 34 l43 6 -37 1 c-37 2 -68 23 -68 46 0 7 11 23 24 35 21 19 23 27 15 49 -9
22 -8 24 6 12 14 -12 14 -8 -1 24 -16 32 -16 38 -4 46 8 6 11 10 6 10 -5 0 -2
7 5 16 14 17 14 17 147 -4 29 -5 58 -14 65 -21 10 -10 7 -10 -15 0 -22 9 -31
9 -43 -1 -20 -17 -19 -37 3 -49 16 -10 15 -10 -3 -11 -15 0 -10 -7 20 -25 22
-14 46 -32 52 -42 7 -9 16 -14 19 -10 3 3 -6 17 -20 30 -26 24 -26 25 -5 30
19 5 21 11 16 43 -8 48 -16 55 -69 61 -43 5 -44 6 -66 67 -13 33 -24 68 -25
76 -4 27 60 40 173 35 58 -3 131 -6 163 -7z m-1762 -151 c-15 -15 -36 6 -27
28 5 15 7 15 22 0 13 -12 14 -19 5 -28z"/>
<path d="M1616 2448 c-9 -12 -16 -39 -16 -60 0 -25 -6 -41 -20 -51 -11 -8 -17
-17 -13 -20 13 -14 40 -6 63 18 14 15 35 25 51 25 32 0 46 28 29 60 -15 28
-28 25 -66 -16 -40 -41 -40 -40 -14 20 20 48 12 62 -14 24z"/>
<path d="M1118 2200 c-17 -17 -29 -33 -26 -35 2 -2 21 0 41 5 47 10 97 -3 136
-35 36 -31 41 -31 41 1 0 57 -48 94 -120 94 -33 0 -48 -6 -72 -30z"/>
<path d="M842 2198 c-12 -15 -4 -68 9 -68 5 0 9 18 9 40 0 43 -2 47 -18 28z"/>
<path d="M817 2094 c-12 -12 -8 -41 8 -54 12 -10 15 -10 14 1 -2 30 -14 60
-22 53z"/>
<path d="M1122 2072 c-20 -13 -3 -39 36 -56 33 -13 38 -13 49 1 11 14 15 13
32 -8 11 -13 20 -20 21 -16 0 17 -31 67 -49 77 -23 12 -71 13 -89 2z"/>
<path d="M1306 2030 c11 -43 20 -55 27 -37 3 9 -3 26 -14 39 l-20 23 7 -25z"/>
<path d="M1442 2013 c-43 -21 -51 -43 -60 -167 -7 -97 -8 -101 -34 -110 -22
-8 -32 -5 -58 17 -17 15 -39 27 -47 27 -9 0 -25 7 -35 16 -16 15 -18 15 -24 1
-7 -19 30 -83 56 -97 27 -15 70 -11 110 8 38 18 48 49 50 142 0 54 9 90 21 90
5 0 18 -9 29 -20 20 -20 77 -29 65 -11 -3 5 -1 12 4 15 5 3 11 -1 15 -9 3 -8
10 -15 16 -15 15 0 -16 56 -35 64 -26 9 -64 7 -88 -6 -20 -10 -21 -10 -8 5 7
10 23 17 35 17 15 0 21 7 22 25 1 14 1 25 0 25 0 0 -16 -8 -34 -17z"/>
<path d="M964 1827 c-3 -10 -3 -29 1 -45 l8 -27 8 35 c8 37 -5 66 -17 37z"/>
<path d="M1083 1787 c-36 -13 -60 -33 -51 -43 6 -5 108 42 108 51 0 8 -22 5
-57 -8z"/>
<path d="M1048 1710 c-2 -7 28 -43 68 -81 85 -83 127 -97 158 -53 18 26 18 26
-2 19 -25 -7 -90 20 -141 59 -48 36 -23 33 99 -14 109 -41 135 -47 145 -31 3
6 -11 13 -32 16 -31 5 -214 65 -274 90 -10 3 -19 1 -21 -5z"/>
<path d="M1406 1680 c8 -44 18 -55 33 -36 9 11 7 20 -14 42 l-26 29 7 -35z"/>
<path d="M1120 1577 c0 -14 53 -87 63 -87 22 0 87 24 87 32 0 4 -21 8 -47 8
-37 0 -53 6 -75 27 -15 15 -28 24 -28 20z"/>
<path d="M1018 1463 c6 -2 18 -2 25 0 6 3 1 5 -13 5 -14 0 -19 -2 -12 -5z"/>
<path d="M1146 1351 c-3 -5 5 -11 19 -13 30 -6 32 -2 6 12 -11 6 -22 6 -25 1z"/>
<path d="M1125 1290 c3 -5 21 -10 38 -10 24 0 28 3 17 10 -20 13 -63 13 -55 0z"/>
<path d="M1100 1203 c0 -16 23 -33 46 -33 13 0 26 -4 29 -10 3 -5 16 -10 28
-10 29 0 11 15 -38 30 -22 7 -46 17 -52 23 -8 5 -13 5 -13 0z"/>
<path d="M1525 1125 c-3 -26 -4 -49 -2 -51 3 -3 8 16 12 41 3 26 4 49 2 51 -3
3 -8 -16 -12 -41z"/>
<path d="M1266 1121 c5 -5 23 -12 39 -16 l30 -6 -25 15 c-28 17 -60 22 -44 7z"/>
<path d="M1080 1108 c0 -26 54 -56 65 -37 4 5 -2 12 -12 16 -10 3 -26 13 -35
21 -16 13 -18 13 -18 0z"/>
<path d="M1210 1055 c14 -7 27 -11 30 -9 6 7 -22 24 -40 23 -9 0 -5 -6 10 -14z"/>
<path d="M1315 1042 c-15 -15 1 -22 49 -19 30 1 52 4 50 6 -7 7 -94 18 -99 13z"/>
<path d="M1298 943 c7 -3 16 -2 19 1 4 3 -2 6 -13 5 -11 0 -14 -3 -6 -6z"/>
<path d="M2116 2224 c7 -17 6 -17 -9 -5 -11 8 -17 9 -17 3 0 -7 -8 -9 -17 -5
-16 5 -15 3 2 -15 14 -15 28 -19 48 -15 32 6 34 14 7 38 -20 18 -21 18 -14 -1z"/>
<path d="M2254 2052 c22 -42 53 -62 98 -62 46 0 53 11 28 43 -14 17 -34 27
-66 32 -26 3 -53 9 -61 12 -13 5 -13 1 1 -25z"/>
<path d="M2070 1979 c-38 -24 -59 -47 -60 -66 0 -26 36 -12 72 28 38 41 39 42
91 36 49 -6 50 -5 27 8 -36 21 -90 18 -130 -6z"/>
<path d="M2146 1899 c-15 -4 -37 -16 -48 -26 -23 -21 -46 -59 -29 -49 6 4 11
2 11 -5 0 -7 6 -5 14 6 13 18 14 18 25 -3 14 -26 38 -28 69 -6 21 15 32 42 12
29 -5 -3 -10 -4 -10 0 0 3 11 10 25 15 58 22 -4 58 -69 39z"/>
<path d="M1980 1576 c0 -23 47 -43 62 -28 15 15 2 28 -34 37 -22 6 -28 4 -28
-9z"/>
<path d="M2190 1569 c-66 -18 -138 -51 -156 -70 -17 -19 -16 -21 16 -54 46
-47 82 -61 120 -45 42 17 63 55 84 153 7 30 -2 33 -64 16z m14 -40 c-33 -38
-134 -75 -134 -50 0 8 125 69 144 70 5 1 1 -9 -10 -20z m26 -33 c0 -8 -14 -28
-31 -45 -32 -32 -71 -40 -99 -20 -13 9 -12 10 3 5 26 -8 81 17 103 48 22 30
24 31 24 12z"/>
<path d="M1873 1028 c6 -4 26 -8 42 -9 27 0 25 -2 -19 -18 -54 -19 -52 -25 9
-34 l40 -6 -35 13 c-33 12 -34 13 -10 19 40 11 60 8 60 -7 0 -8 13 -17 29 -21
23 -5 31 -13 33 -33 3 -26 4 -25 9 6 5 31 3 34 -24 39 -20 4 -33 15 -40 33 -9
23 -15 26 -58 26 -28 0 -44 -3 -36 -8z"/>
<path d="M2123 973 c-4 -10 -11 -21 -17 -25 -6 -4 -1 -8 12 -8 17 0 22 6 22
25 0 29 -8 33 -17 8z"/>
<path d="M1890 857 c-28 -7 -37 -12 -25 -14 11 -2 40 3 65 11 53 16 25 19 -40
3z"/>
<path d="M1893 743 c9 -2 23 -2 30 0 6 3 -1 5 -18 5 -16 0 -22 -2 -12 -5z"/>
</g>
</svg>
